<?xml version="1.0" encoding="iso-8859-1"?>
<!-- Generator: Adobe Illustrator 19.0.0, SVG Export Plug-In . SVG Version: 6.00 Build 0)  -->
<svg version="1.1" id="Capa_1" xmlns="http://www.w3.org/2000/svg" xmlns:xlink="http://www.w3.org/1999/xlink" x="0px" y="0px"
	 viewBox="0 0 512.001 512.001" style="enable-background:new 0 0 512.001 512.001;" xml:space="preserve">
<path d="M8.982,512c-3.764,0-7.271-2.385-8.52-6.153c-1.567-4.707,0.979-9.791,5.686-11.354
	c2.398-0.799,240.353-82.198,337.044-299.906l17.857-97.873c0.894-4.877,5.547-8.125,10.451-7.222
	c4.877,0.889,8.116,5.569,7.222,10.447l-18.05,98.924c-0.126,0.692-0.332,1.37-0.62,2.017
	C260.356,426.734,14.291,510.716,11.816,511.542C10.878,511.852,9.921,512,8.982,512z"/>
<path style="fill:#83D816;" d="M390.822,8.978c-32.054,5.376-61.238,37.313-70.063,80.483c-8.825,43.17,5.497,83.946,32.885,101.389
	c32.054-5.376,61.238-37.313,70.063-80.483S418.21,26.426,390.822,8.978z"/>
<path d="M353.648,199.837c-1.698,0-3.373-0.481-4.824-1.406c-31.492-20.058-46.305-64.57-36.864-110.767
	c9.441-46.183,40.538-81.363,77.375-87.543c2.196-0.359,4.442,0.094,6.31,1.284c31.492,20.058,46.305,64.57,36.864,110.767
	c-9.445,46.183-40.538,81.363-77.379,87.543C354.636,199.792,354.142,199.837,353.648,199.837z M388.877,18.531
	c-27.684,6.58-51.788,35.889-59.316,72.726c-7.532,36.828,3.139,73.194,26.027,90.04c27.684-6.584,51.788-35.894,59.316-72.726
	C422.436,71.743,411.765,35.382,388.877,18.531z"/>
<path style="fill:#83D816;" d="M205.119,148.812c-31.47,18.01-49.606,62.72-42.06,111.329c7.545,48.609,38.396,85.764,73.854,93.453
	c31.47-18.01,49.606-62.72,42.06-111.329S240.572,156.501,205.119,148.812z"/>
<path d="M236.912,362.581c-0.638,0-1.276-0.067-1.904-0.207c-40.34-8.749-72.821-49.282-80.829-100.855
	c-8.008-51.582,10.667-100.011,46.475-120.504c1.927-1.105,4.204-1.451,6.364-0.984c40.336,8.749,72.821,49.282,80.829,100.855
	c8.003,51.582-10.671,100.015-46.475,120.504C240.007,362.177,238.466,362.581,236.912,362.581z M206.605,158.433
	c-27.01,17.664-41.198,58.26-34.668,100.33c6.53,42.074,32.377,76.504,63.492,85.217c27.006-17.668,41.198-58.269,34.668-100.334
	C263.568,201.571,237.716,167.141,206.605,158.433z"/>
<path style="fill:#83D816;" d="M299.911,300.302c19.973,30.199,65.859,45.492,114.073,34.991
	c48.213-10.5,83.519-43.475,89.034-79.225c-19.972-30.199-65.859-45.492-114.073-34.991
	C340.736,231.577,305.426,264.556,299.911,300.302z"/>
<path d="M383.344,347.63c-38.696,0-73.09-15.409-90.92-42.37c-1.231-1.864-1.729-4.118-1.388-6.324
	c6.27-40.682,44.849-75.493,95.996-86.636c51.16-11.147,100.761,4.464,123.477,38.809c1.231,1.864,1.729,4.118,1.388,6.324
	c-6.27,40.682-44.854,75.498-96,86.636C404.893,346.467,393.952,347.63,383.344,347.63z M309.432,298.222
	c19.366,25.775,60.897,37.389,102.643,28.299c41.732-9.086,74.617-36.9,81.43-68.37c-19.371-25.775-60.901-37.385-102.643-28.295
	C349.13,238.947,316.241,266.757,309.432,298.222z"/>
<path style="fill:#83D816;" d="M153.762,437.859c7.711,28.955,39.711,53.005,80.344,57.407
	c40.632,4.401,77.069-12.234,90.844-38.863c-7.711-28.955-39.711-53.005-80.344-57.407
	C203.973,394.595,167.536,411.23,153.762,437.859z"/>
<path d="M247.233,504.967c-4.639,0-9.346-0.256-14.093-0.768c-43.731-4.743-79.117-30.468-88.055-64.027
	c-0.575-2.156-0.323-4.455,0.701-6.44c15.962-30.85,56.06-48.393,99.791-43.668c43.736,4.743,79.122,30.468,88.055,64.027
	c0.575,2.156,0.323,4.451-0.701,6.44C318.702,488.035,285.292,504.967,247.233,504.967z M163.476,438.919
	c8.511,24.437,37.327,43.704,71.595,47.423c34.291,3.696,66.582-8.942,80.159-30.989c-8.511-24.437-37.322-43.704-71.595-47.423
	C209.363,404.233,177.062,416.871,163.476,438.919z"/>
<path style="fill:#83D816;" d="M216.499,251.203c0,0,24.059,40.47,21.055,105.67"/>
<path d="M237.563,365.856c-0.139,0-0.278-0.004-0.422-0.009c-4.954-0.229-8.789-4.428-8.56-9.387
	c2.847-61.795-19.573-100.285-19.802-100.666c-2.533-4.262-1.132-9.777,3.13-12.31c4.262-2.529,9.773-1.127,12.31,3.13
	c1.037,1.747,25.398,43.556,22.308,110.673C246.308,362.101,242.333,365.856,237.563,365.856z"/>
<path style="fill:#83D816;" d="M396.953,278.187c0,0-45.114,17.987-99.247,17.987"/>
<path d="M297.705,305.161c-4.958,0-8.982-4.024-8.982-8.982c0-4.958,4.024-8.982,8.982-8.982c51.806,0,95.484-17.174,95.919-17.345
	c4.599-1.855,9.831,0.413,11.668,5.017c1.837,4.604-0.409,9.827-5.017,11.668C398.372,287.295,352.925,305.161,297.705,305.161z"/>
<g>
</g>
<g>
</g>
<g>
</g>
<g>
</g>
<g>
</g>
<g>
</g>
<g>
</g>
<g>
</g>
<g>
</g>
<g>
</g>
<g>
</g>
<g>
</g>
<g>
</g>
<g>
</g>
<g>
</g>
</svg>
